<svg width="735" height="182" viewBox="0 0 735 182" fill="none" xmlns="http://www.w3.org/2000/svg">
<g clip-path="url(#clip0_2_182)">
<path d="M729.352 130.23V179.174H716.184V163.365C711.982 169.13 706.311 173.621 699.139 176.906C691.966 180.157 684.245 181.799 675.963 181.799C660.588 181.799 647.734 176.783 637.502 166.773C627.371 156.886 622.25 144.697 622.127 130.219H636.079C636.079 141.346 640.024 150.741 647.913 158.394C655.803 166.047 665.283 169.901 676.367 169.901C687.058 169.901 696.371 165.868 704.294 157.78C711.825 150.082 715.792 140.888 716.162 130.219H729.352V130.23Z" fill="black"/>
<path d="M580.651 179.174H568.323L548.207 130.23H562.754L575.103 159.835L587.565 130.23H601.697L580.651 179.174Z" fill="black"/>
<path d="M433.698 130.23C433.933 141.268 437.777 150.54 445.218 158.07C452.94 165.846 462.488 169.722 473.963 169.722C485.204 169.722 494.662 165.846 502.316 158.07C509.668 150.574 513.467 141.29 513.736 130.23H527.856C527.363 144.183 522.129 156.171 512.156 166.192C501.632 176.727 488.924 182 473.963 182C458.745 182 445.868 176.827 435.345 166.505C425.035 156.394 419.757 144.329 419.544 130.23H433.698Z" fill="black"/>
<path d="M380.735 130.185L423.029 179.129L405.121 179.174L371.994 140.497H363.197V179.174H349.738V140.497V130.23H363.197L380.735 130.185Z" fill="black"/>
<path d="M320.029 130.23H306.379V179.174H320.029V130.23Z" fill="black"/>
<path d="M285.288 130.23V179.174H272.12V163.365C267.918 169.13 262.247 173.621 255.075 176.906C247.903 180.157 240.181 181.799 231.9 181.799C216.513 181.799 203.67 176.783 193.438 166.773C183.307 156.886 178.186 144.697 178.052 130.219H192.004C192.004 141.346 195.949 150.741 203.838 158.394C211.728 166.047 221.208 169.901 232.292 169.901C242.983 169.901 252.307 165.868 260.219 157.78C267.761 150.082 271.728 140.888 272.087 130.219H285.288V130.23Z" fill="black"/>
<path d="M13.3135 130.23C13.2799 131.749 13.2575 133.403 13.2575 135.157V179.174H0V130.23H13.3135Z" fill="black"/>
<path d="M87.4343 130.23C87.4007 131.749 87.3783 133.403 87.3783 135.157V179.174H74.6699V130.23H87.4343Z" fill="black"/>
<path d="M160.659 130.23C160.692 131.302 160.704 132.386 160.704 133.503V179.185H147.793V131.124C147.793 130.833 147.793 130.531 147.793 130.241H160.659V130.23Z" fill="black"/>
<path d="M474.143 81.2861V0H487.602V71.008H496.052L527.845 32.3312H543.669L503.302 81.2861H501.24H487.602H480.878H474.143Z" fill="black"/>
<path d="M364.956 71.0081H442.394C439.693 62.0147 435.401 55.0659 429.54 50.1838C422.726 44.5085 413.862 41.6932 402.913 41.6932C392.749 41.6932 384.108 44.7319 377.037 50.8429C371.008 56.0267 367.007 62.7409 364.956 71.0081ZM349.715 81.2861C349.928 66.4835 355.105 54.2392 365.225 44.5197C375.558 34.5656 388.793 29.6053 404.885 29.6053C420.698 29.6053 433.563 34.7779 443.515 45.1006C452.637 54.5743 457.579 66.6287 458.364 81.275H445.846H359.476H349.715V81.2861Z" fill="black"/>
<path d="M306.356 81.2861V32.3312H319.065V43.8605C322.36 39.4253 325.979 36.2078 329.879 34.1299C333.824 32.0854 338.385 31.0018 343.607 30.8789L343.708 44.7654C335.236 45.4804 329.173 47.8935 325.52 51.9824C321.844 56.0825 320.017 62.7074 320.017 71.9129V81.2749H306.356V81.2861Z" fill="black"/>
<path d="M272.109 81.2861C272.019 70.8404 268.041 61.7242 260.185 53.9151C252.228 46.0055 243.039 42.073 232.673 42.073C221.399 42.073 211.817 46.0055 203.894 53.9151C196.43 61.3556 192.463 70.483 192.037 81.2861H178.074C178.399 66.9862 183.643 54.9765 193.763 45.2347C204.219 35.18 217.319 30.1639 233.065 30.1639C241.145 30.1639 248.541 31.7168 255.288 34.8449C262.034 37.973 267.637 42.464 272.109 48.3292V32.3312H285.277V81.2749H272.109V81.2861Z" fill="black"/>
<path fill-rule="evenodd" clip-rule="evenodd" d="M118.981 30.1862C135.163 30.1862 151.357 37.3921 157.51 52.9991C160.636 60.9311 160.703 72.5833 160.703 81.2749H147.793C147.793 74.5272 147.782 64.6513 144.913 57.2332C139.713 46.3295 130.277 42.0507 117.591 42.0507C104.906 42.0507 94.0463 48.6756 89.5748 58.0711C87.7818 61.9365 87.4568 66.9527 87.3671 75.2533L87.3783 81.2638H87.3223H74.6588V81.018V80.7722V80.5041C74.6588 74.9294 74.5467 62.6515 72.1933 58.0823C67.7218 48.6868 56.8626 42.0619 44.1766 42.0619C31.4907 42.0619 20.6315 48.6868 16.16 58.0823C13.9635 62.8079 13.3135 69.2429 13.2575 81.2749H0V32.3312H13.3135C13.2799 33.8506 13.2575 35.504 13.2575 37.258V43.8717C19.8246 36.2861 32.3312 30.1974 46.3507 30.1974C60.3815 30.1974 74.6588 35.6604 81.5172 48.1505C88.3645 37.9395 100.322 30.1862 118.981 30.1862Z" fill="black"/>
<path fill-rule="evenodd" clip-rule="evenodd" d="M719.176 32.3312H735L694.622 81.2861H678.933L719.176 32.3312Z" fill="black"/>
</g>
<defs>
<clipPath id="clip0_2_182">
<rect width="735" height="182" fill="white"/>
</clipPath>
</defs>
</svg>
